{
    "asset" : {
        "generator" : "Khronos glTF Blender I/O v1.7.33",
        "version" : "2.0"
    },
    "scene" : 0,
    "scenes" : [
        {
            "name" : "Scene",
            "nodes" : [
                0,
                1,
                2,
                3,
                4,
                5
            ]
        }
    ],
    "nodes" : [
        {
            "mesh" : 0,
            "name" : "Cylinder",
            "scale" : [
                1,
                1.6800000667572021,
                1
            ],
            "translation" : [
                0,
                -0.019999999552965164,
                0
            ]
        },
        {
            "mesh" : 1,
            "name" : "flower2",
            "scale" : [
                0.4439544677734375,
                0.4439544677734375,
                0.4439544677734375
            ],
            "translation" : [
                0.27052751183509827,
                -0.005166996270418167,
                -0.1397654116153717
            ]
        },
        {
            "mesh" : 2,
            "name" : "ImperfectRock.002",
            "rotation" : [
                0,
                0,
                1,
                -4.371138828673793e-08
            ],
            "scale" : [
                1.0399999618530273,
                1.399999976158142,
                0.9100000262260437
            ],
            "translation" : [
                0.24475747346878052,
                0.22322507202625275,
                -0.07005362957715988
            ]
        },
        {
            "mesh" : 3,
            "name" : "Plane.001",
            "rotation" : [
                0.2518112063407898,
                0.6252647638320923,
                -0.6625790596008301,
                0.32653337717056274
            ],
            "scale" : [
                0.3251728415489197,
                0.32517287135124207,
                0.32517287135124207
            ],
            "translation" : [
                -0.1620722860097885,
                0.0667153000831604,
                0.09123082458972931
            ]
        },
        {
            "mesh" : 4,
            "name" : "Plane.006",
            "rotation" : [
                0.7069886922836304,
                0.012927556410431862,
                -0.012927558273077011,
                0.7069885730743408
            ],
            "scale" : [
                0.5112028121948242,
                0.5112028121948242,
                0.5112028121948242
            ],
            "translation" : [
                -0.07263410091400146,
                0.11944937705993652,
                -0.21507662534713745
            ]
        },
        {
            "mesh" : 5,
            "name" : "Rock.006",
            "rotation" : [
                0,
                0.6004388332366943,
                0,
                0.7996706962585449
            ],
            "scale" : [
                0.3707451820373535,
                0.3707451820373535,
                0.3707451820373535
            ],
            "translation" : [
                0.1153583899140358,
                -0.021168533712625504,
                0.04225383326411247
            ]
        }
    ],
    "materials" : [
        {
            "doubleSided" : true,
            "name" : "Material.002",
            "pbrMetallicRoughness" : {
                "baseColorFactor" : [
                    0.03599562123417854,
                    0.3505576550960541,
                    0.016120539978146553,
                    1
                ],
                "metallicFactor" : 0,
                "roughnessFactor" : 0.5738831758499146
            }
        },
        {
            "doubleSided" : true,
            "name" : "Material.009",
            "pbrMetallicRoughness" : {
                "baseColorFactor" : [
                    0,
                    0.14995987713336945,
                    0.0015176404267549515,
                    1
                ],
                "metallicFactor" : 0,
                "roughnessFactor" : 0.25
            }
        },
        {
            "doubleSided" : true,
            "name" : "Material.020",
            "pbrMetallicRoughness" : {
                "baseColorFactor" : [
                    1,
                    0.515259325504303,
                    0,
                    1
                ],
                "metallicFactor" : 0,
                "roughnessFactor" : 0.5
            }
        },
        {
            "doubleSided" : true,
            "name" : "Material.021",
            "pbrMetallicRoughness" : {
                "baseColorFactor" : [
                    0.6275922060012817,
                    0.7808215022087097,
                    1,
                    1
                ],
                "metallicFactor" : 0,
                "roughnessFactor" : 0.5
            }
        },
        {
            "doubleSided" : true,
            "name" : "Material.001",
            "pbrMetallicRoughness" : {
                "baseColorFactor" : [
                    0.10653138905763626,
                    0.04979885369539261,
                    0.005452865734696388,
                    1
                ],
                "metallicFactor" : 0,
                "roughnessFactor" : 0.29037800431251526
            }
        },
        {
            "doubleSided" : true,
            "name" : "Material.024",
            "pbrMetallicRoughness" : {
                "baseColorFactor" : [
                    0,
                    0.14995987713336945,
                    0.0015176404267549515,
                    1
                ],
                "metallicFactor" : 0,
                "roughnessFactor" : 0.5
            }
        },
        {
            "doubleSided" : true,
            "name" : "Material.019",
            "pbrMetallicRoughness" : {
                "baseColorFactor" : [
                    0,
                    0.14995987713336945,
                    0.0015176404267549515,
                    1
                ],
                "metallicFactor" : 0,
                "roughnessFactor" : 0.5
            }
        },
        {
            "doubleSided" : true,
            "name" : "Material.025",
            "pbrMetallicRoughness" : {
                "baseColorFactor" : [
                    0.49022823572158813,
                    0.49022823572158813,
                    0.49022823572158813,
                    1
                ],
                "metallicFactor" : 0,
                "roughnessFactor" : 0.30000001192092896
            }
        }
    ],
    "meshes" : [
        {
            "name" : "Cylinder",
            "primitives" : [
                {
                    "attributes" : {
                        "POSITION" : 0,
                        "NORMAL" : 1,
                        "TEXCOORD_0" : 2
                    },
                    "indices" : 3,
                    "material" : 0
                }
            ]
        },
        {
            "name" : "Sphere.003",
            "primitives" : [
                {
                    "attributes" : {
                        "POSITION" : 4,
                        "NORMAL" : 5,
                        "TEXCOORD_0" : 6
                    },
                    "indices" : 7,
                    "material" : 1
                },
                {
                    "attributes" : {
                        "POSITION" : 8,
                        "NORMAL" : 9,
                        "TEXCOORD_0" : 10
                    },
                    "indices" : 11,
                    "material" : 2
                },
                {
                    "attributes" : {
                        "POSITION" : 12,
                        "NORMAL" : 13,
                        "TEXCOORD_0" : 14
                    },
                    "indices" : 15,
                    "material" : 3
                }
            ]
        },
        {
            "name" : "Cube.009",
            "primitives" : [
                {
                    "attributes" : {
                        "POSITION" : 16,
                        "NORMAL" : 17,
                        "TEXCOORD_0" : 18
                    },
                    "indices" : 19,
                    "material" : 4
                }
            ]
        },
        {
            "name" : "Plane.001",
            "primitives" : [
                {
                    "attributes" : {
                        "POSITION" : 20,
                        "NORMAL" : 21
                    },
                    "indices" : 22,
                    "material" : 5
                }
            ]
        },
        {
            "name" : "Plane.006",
            "primitives" : [
                {
                    "attributes" : {
                        "POSITION" : 23,
                        "NORMAL" : 24
                    },
                    "indices" : 25,
                    "material" : 6
                }
            ]
        },
        {
            "name" : "Cube.033",
            "primitives" : [
                {
                    "attributes" : {
                        "POSITION" : 26,
                        "NORMAL" : 27,
                        "TEXCOORD_0" : 28
                    },
                    "indices" : 29,
                    "material" : 7
                }
            ]
        }
    ],
    "accessors" : [
        {
            "bufferView" : 0,
            "componentType" : 5126,
            "count" : 384,
            "max" : [
                0.5,
                0.019999999552965164,
                0.5
            ],
            "min" : [
                -0.5,
                -0.019999999552965164,
                -0.5
            ],
            "type" : "VEC3"
        },
        {
            "bufferView" : 1,
            "componentType" : 5126,
            "count" : 384,
            "type" : "VEC3"
        },
        {
            "bufferView" : 2,
            "componentType" : 5126,
            "count" : 384,
            "type" : "VEC2"
        },
        {
            "bufferView" : 3,
            "componentType" : 5123,
            "count" : 756,
            "type" : "SCALAR"
        },
        {
            "bufferView" : 4,
            "componentType" : 5126,
            "count" : 124,
            "max" : [
                0.09271799772977829,
                0.4793807864189148,
                0.053508639335632324
            ],
            "min" : [
                -0.057286009192466736,
                -0.007506218738853931,
                -0.05924977734684944
            ],
            "type" : "VEC3"
        },
        {
            "bufferView" : 5,
            "componentType" : 5126,
            "count" : 124,
            "type" : "VEC3"
        },
        {
            "bufferView" : 6,
            "componentType" : 5126,
            "count" : 124,
            "type" : "VEC2"
        },
        {
            "bufferView" : 7,
            "componentType" : 5123,
            "count" : 186,
            "type" : "SCALAR"
        },
        {
            "bufferView" : 8,
            "componentType" : 5126,
            "count" : 128,
            "max" : [
                0.31840386986732483,
                0.6540987491607666,
                0.24213044345378876
            ],
            "min" : [
                -0.1586686670780182,
                0.33287695050239563,
                -0.34831729531288147
            ],
            "type" : "VEC3"
        },
        {
            "bufferView" : 9,
            "componentType" : 5126,
            "count" : 128,
            "type" : "VEC3"
        },
        {
            "bufferView" : 10,
            "componentType" : 5126,
            "count" : 128,
            "type" : "VEC2"
        },
        {
            "bufferView" : 11,
            "componentType" : 5123,
            "count" : 192,
            "type" : "SCALAR"
        },
        {
            "bufferView" : 12,
            "componentType" : 5126,
            "count" : 76,
            "max" : [
                0.13798189163208008,
                0.49446871876716614,
                0.08787968009710312
            ],
            "min" : [
                -0.057286009192466736,
                0.24762938916683197,
                -0.12301334738731384
            ],
            "type" : "VEC3"
        },
        {
            "bufferView" : 13,
            "componentType" : 5126,
            "count" : 76,
            "type" : "VEC3"
        },
        {
            "bufferView" : 14,
            "componentType" : 5126,
            "count" : 76,
            "type" : "VEC2"
        },
        {
            "bufferView" : 15,
            "componentType" : 5123,
            "count" : 120,
            "type" : "SCALAR"
        },
        {
            "bufferView" : 16,
            "componentType" : 5126,
            "count" : 446,
            "max" : [
                0.7904462814331055,
                0.6643526554107666,
                0.6984558701515198
            ],
            "min" : [
                -0.28495216369628906,
                0.17632317543029785,
                -0.4905616044998169
            ],
            "type" : "VEC3"
        },
        {
            "bufferView" : 17,
            "componentType" : 5126,
            "count" : 446,
            "type" : "VEC3"
        },
        {
            "bufferView" : 18,
            "componentType" : 5126,
            "count" : 446,
            "type" : "VEC2"
        },
        {
            "bufferView" : 19,
            "componentType" : 5123,
            "count" : 894,
            "type" : "SCALAR"
        },
        {
            "bufferView" : 20,
            "componentType" : 5126,
            "count" : 44,
            "max" : [
                0.29992055892944336,
                0.31435465812683105,
                0.3159106969833374
            ],
            "min" : [
                -0.152923583984375,
                -0.4243583381175995,
                -0.6864922046661377
            ],
            "type" : "VEC3"
        },
        {
            "bufferView" : 21,
            "componentType" : 5126,
            "count" : 44,
            "type" : "VEC3"
        },
        {
            "bufferView" : 22,
            "componentType" : 5123,
            "count" : 60,
            "type" : "SCALAR"
        },
        {
            "bufferView" : 23,
            "componentType" : 5126,
            "count" : 88,
            "max" : [
                0.4101979732513428,
                0.3370136618614197,
                0.3145822286605835
            ],
            "min" : [
                -0.4225881099700928,
                -0.4297312796115875,
                -0.7048346996307373
            ],
            "type" : "VEC3"
        },
        {
            "bufferView" : 24,
            "componentType" : 5126,
            "count" : 88,
            "type" : "VEC3"
        },
        {
            "bufferView" : 25,
            "componentType" : 5123,
            "count" : 120,
            "type" : "SCALAR"
        },
        {
            "bufferView" : 26,
            "componentType" : 5126,
            "count" : 108,
            "max" : [
                0.5064266920089722,
                0.8301756381988525,
                0.6062842011451721
            ],
            "min" : [
                -0.812899112701416,
                -0.05289366841316223,
                -0.6432462334632874
            ],
            "type" : "VEC3"
        },
        {
            "bufferView" : 27,
            "componentType" : 5126,
            "count" : 108,
            "type" : "VEC3"
        },
        {
            "bufferView" : 28,
            "componentType" : 5126,
            "count" : 108,
            "type" : "VEC2"
        },
        {
            "bufferView" : 29,
            "componentType" : 5123,
            "count" : 204,
            "type" : "SCALAR"
        }
    ],
    "bufferViews" : [
        {
            "buffer" : 0,
            "byteLength" : 4608,
            "byteOffset" : 0
        },
        {
            "buffer" : 0,
            "byteLength" : 4608,
            "byteOffset" : 4608
        },
        {
            "buffer" : 0,
            "byteLength" : 3072,
            "byteOffset" : 9216
        },
        {
            "buffer" : 0,
            "byteLength" : 1512,
            "byteOffset" : 12288
        },
        {
            "buffer" : 0,
            "byteLength" : 1488,
            "byteOffset" : 13800
        },
        {
            "buffer" : 0,
            "byteLength" : 1488,
            "byteOffset" : 15288
        },
        {
            "buffer" : 0,
            "byteLength" : 992,
            "byteOffset" : 16776
        },
        {
            "buffer" : 0,
            "byteLength" : 372,
            "byteOffset" : 17768
        },
        {
            "buffer" : 0,
            "byteLength" : 1536,
            "byteOffset" : 18140
        },
        {
            "buffer" : 0,
            "byteLength" : 1536,
            "byteOffset" : 19676
        },
        {
            "buffer" : 0,
            "byteLength" : 1024,
            "byteOffset" : 21212
        },
        {
            "buffer" : 0,
            "byteLength" : 384,
            "byteOffset" : 22236
        },
        {
            "buffer" : 0,
            "byteLength" : 912,
            "byteOffset" : 22620
        },
        {
            "buffer" : 0,
            "byteLength" : 912,
            "byteOffset" : 23532
        },
        {
            "buffer" : 0,
            "byteLength" : 608,
            "byteOffset" : 24444
        },
        {
            "buffer" : 0,
            "byteLength" : 240,
            "byteOffset" : 25052
        },
        {
            "buffer" : 0,
            "byteLength" : 5352,
            "byteOffset" : 25292
        },
        {
            "buffer" : 0,
            "byteLength" : 5352,
            "byteOffset" : 30644
        },
        {
            "buffer" : 0,
            "byteLength" : 3568,
            "byteOffset" : 35996
        },
        {
            "buffer" : 0,
            "byteLength" : 1788,
            "byteOffset" : 39564
        },
        {
            "buffer" : 0,
            "byteLength" : 528,
            "byteOffset" : 41352
        },
        {
            "buffer" : 0,
            "byteLength" : 528,
            "byteOffset" : 41880
        },
        {
            "buffer" : 0,
            "byteLength" : 120,
            "byteOffset" : 42408
        },
        {
            "buffer" : 0,
            "byteLength" : 1056,
            "byteOffset" : 42528
        },
        {
            "buffer" : 0,
            "byteLength" : 1056,
            "byteOffset" : 43584
        },
        {
            "buffer" : 0,
            "byteLength" : 240,
            "byteOffset" : 44640
        },
        {
            "buffer" : 0,
            "byteLength" : 1296,
            "byteOffset" : 44880
        },
        {
            "buffer" : 0,
            "byteLength" : 1296,
            "byteOffset" : 46176
        },
        {
            "buffer" : 0,
            "byteLength" : 864,
            "byteOffset" : 47472
        },
        {
            "buffer" : 0,
            "byteLength" : 408,
            "byteOffset" : 48336
        }
    ],
    "buffers" : [
        {
            "byteLength" : 48744,
            "uri" : "data:application/octet-stream;base64,"
        }
    ]
}
